<?xml version="1.0" encoding="utf-8"?>
<!-- Generator: Adobe Illustrator 12.0.0, SVG Export Plug-In . SVG Version: 6.00 Build 51448)  -->
<!DOCTYPE svg PUBLIC "-//W3C//DTD SVG 1.1//EN" "http://www.w3.org/Graphics/SVG/1.1/DTD/svg11.dtd" [
	<!ENTITY ns_svg "http://www.w3.org/2000/svg">
	<!ENTITY ns_xlink "http://www.w3.org/1999/xlink">
]>
<svg  version="1.1" id="Layer_1" xmlns="&ns_svg;" xmlns:xlink="&ns_xlink;" width="242" height="201"
	 viewBox="-0.999 -0.762 242 201" overflow="visible" enable-background="new -0.999 -0.762 242 201" xml:space="preserve">
<path fill="#C00000" d="M110.986,16.235c0.19-1.135,1.003-0.555,1,0c5.629,4.227,10.699,6.611,15,11.999
	c3.592,4.501,5.255,11.669,9.998,16.998c10.463,11.755,30.484,16.537,45.994,14.998c20.541-2.039,36.138-19.938,34.996-44.994
	c5.066,2.213,8.49,6.415,11.998,9.999c3.928,4.013,9.672,8.587,9.998,15.998c0.91,20.618-16.082,38.688-33.994,40.995
	c-23.949,3.083-46.774-11.224-58.994-21.997C130.86,46.017,121.355,30.583,110.986,16.235z"/>
<path fill="#C00000" d="M3,150.219c2.805,0.055,4.575,3.171,6.999,4.999c9.039,6.821,22.579,14.199,36.996,17.998
	c17.655,4.652,36.553,7.108,47.994-1c10.92-7.738,18.344-36.726,1-44.993c-14.144-6.742-23.721,8.688-40.995,5.998
	c-8.365-1.302-13.623-10.226-18.998-15.997c-1.7-1.825-4.782-2.416-4-4.999c14.481,1.529,25.146-6.186,33.996-11.999
	C75.44,94.017,85.45,87.486,83.99,70.229c-15.978-6.604-35.603-3.928-52.993,1c-3.617,1.024-7.16,3.218-8.999,3
	C12.378,73.088,6.979,58.357,0,53.231c17.235-6.472,33.888-10.165,53.993-7.999C67.707,46.71,81.101,56.97,90.989,67.229
	c6.702,6.954,17.028,18.195,13.998,33.996c-0.283,1.474-3.429,6.583-5,8.999c-3.142,4.834-8.12,6.286-2,11.999
	c3.506,3.271,10.444,8.037,12.999,10.998c18.227-10.652,33.156-27.4,64.992-24.997c18.98,1.434,29.197,9.199,39.994,19.998
	c9.822,9.821,24.543,21.432,23.997,34.994c-0.577,14.363-16.153,9.334-26.995,15.998c-7.013,4.311-8.246,8.497-10,18.998
	c-5.968-3.053-8.447-5.447-11.998-8.999c-3.461-3.462-8.164-7.629-8.998-11.998c-1.525-7.985,3.028-16.361,6.998-18.998
	c8.864-5.887,26.308-1.534,28.996-12.998c0.455-1.94,0.129-7.664,0-7.998c-2.615-6.788-23.557-7.864-31.996-6.999
	c-25.375,2.599-44.457,19.428-58.992,31.994c2.697,24.922-8.729,38.688-34.996,36.996C53.93,196.764,20.814,171.461,3,150.219z"/>
<rect x="161.84" y="4.83" transform="matrix(-0.7071 0.7071 -0.7071 -0.7071 307.841 -94.5336)" fill="#C00000" width="23.318" height="23.318"/>
</svg>
